<?xml version="1.0" standalone="no"?>
<!DOCTYPE svg PUBLIC "-//W3C//DTD SVG 20010904//EN"
 "http://www.w3.org/TR/2001/REC-SVG-20010904/DTD/svg10.dtd">
<svg version="1.0" xmlns="http://www.w3.org/2000/svg"
 width="500.000000pt" height="500.000000pt" viewBox="0 0 500.000000 500.000000"
 preserveAspectRatio="xMidYMid meet">

<g transform="translate(0.000000,500.000000) scale(0.100000,-0.100000)"
fill="#000000" stroke="none">
<path d="M2920 2950 c-108 -14 -191 -65 -233 -145 -17 -32 -22 -57 -22 -125 0
-75 3 -91 27 -131 39 -67 82 -100 216 -168 136 -70 174 -103 174 -154 0 -46
-16 -73 -54 -93 -50 -26 -181 -14 -287 25 -47 17 -86 31 -88 31 -2 0 -3 -42
-3 -94 l0 -93 68 -22 c39 -13 105 -25 159 -28 158 -10 277 27 345 107 43 49
58 98 58 182 0 131 -61 199 -276 306 -112 56 -144 87 -144 139 0 44 43 89 94
98 42 8 138 -8 210 -36 28 -10 50 -18 51 -16 1 1 16 36 33 77 l31 75 -38 17
c-89 40 -226 61 -321 48z"/>
<path d="M1780 2451 l0 -491 198 0 c213 0 301 10 372 41 126 56 187 193 147
330 -19 65 -55 103 -123 128 l-49 19 40 16 c81 34 114 92 115 199 0 80 -15
120 -62 165 -68 64 -123 75 -395 80 l-243 4 0 -491z m439 304 c38 -19 51 -43
51 -94 0 -80 -55 -110 -202 -111 l-78 0 0 117 0 116 100 -6 c59 -4 111 -12
129 -22z m9 -385 c51 -23 77 -73 67 -128 -16 -85 -67 -112 -210 -112 l-95 0 0
130 0 130 98 0 c74 0 107 -5 140 -20z"/>
</g>
</svg>
